<?xml version="1.0" encoding="UTF-8" standalone="no"?>
<svg
   xmlns:dc="http://purl.org/dc/elements/1.1/"
   xmlns:cc="http://creativecommons.org/ns#"
   xmlns:rdf="http://www.w3.org/1999/02/22-rdf-syntax-ns#"
   xmlns:svg="http://www.w3.org/2000/svg"
   xmlns="http://www.w3.org/2000/svg"
   xmlns:sodipodi="http://sodipodi.sourceforge.net/DTD/sodipodi-0.dtd"
   xmlns:inkscape="http://www.inkscape.org/namespaces/inkscape"
   version="1.1"
   width="29.7002cm"
   height="21.0007cm"
   viewBox="0 0 116930 82680 "
   id="svg2002"
   sodipodi:docname="Lily58_Pro_Case.svg"
   inkscape:version="0.92.3 (2405546, 2018-03-11)">
  <metadata
     id="metadata2008">
    <rdf:RDF>
      <cc:Work
         rdf:about="">
        <dc:format>image/svg+xml</dc:format>
        <dc:type
           rdf:resource="http://purl.org/dc/dcmitype/StillImage" />
        <dc:title>SVG Picture created as Lily58_Pro_TOP-brd.svg date 2019/10/24 15:01:04 </dc:title>
      </cc:Work>
    </rdf:RDF>
  </metadata>
  <defs
     id="defs2006" />
  <sodipodi:namedview
     pagecolor="#ffffff"
     bordercolor="#666666"
     borderopacity="1"
     objecttolerance="10"
     gridtolerance="10"
     guidetolerance="10"
     inkscape:pageopacity="0"
     inkscape:pageshadow="2"
     inkscape:window-width="1548"
     inkscape:window-height="992"
     id="namedview2004"
     showgrid="false"
     inkscape:zoom="1"
     inkscape:cx="520.02371"
     inkscape:cy="441.98844"
     inkscape:window-x="93"
     inkscape:window-y="117"
     inkscape:window-maximized="0"
     inkscape:current-layer="svg2002" />
  <title
     id="title2">SVG Picture created as Lily58_Pro_TOP-brd.svg date 2019/10/24 15:01:04 </title>
  <desc
     id="desc4">Picture generated by PCBNEW </desc>
  <path
     id="path2892"
     d="M 82165,32697 H 87677 V 38208 38208 H 82165 Z"
     style="fill:#c2c200;fill-opacity:0;stroke:#000000;stroke-width:78.74019623;stroke-linecap:round;stroke-linejoin:round;stroke-opacity:1"
     inkscape:connector-curvature="0"
     transform="translate(2256.5441,8615.8958)" />
  <path
     id="path2890"
     d="M 87696,40176 V 45688 H 82184 V 40176 Z"
     style="fill:#c2c200;fill-opacity:0;stroke:#000000;stroke-width:78.74019623;stroke-linecap:round;stroke-linejoin:round;stroke-opacity:1"
     inkscape:connector-curvature="0"
     transform="translate(2256.5441,8615.8958)" />
  <path
     id="path2886"
     d="M 70191,52111 70157,52222 70102,52322 70030,52410 69943,52482 69843,52536 69732,52570 69613,52582 H 46401.5 L 45741,52964 45082,53346 44422,53728 43762,54110 43103,54492 42443,54874 41783,55256 41123,55638 41052,55677 41002,55693 40953,55697 H 40909 L 40866,55684 40822,55663 40763,55626 40726,55580 40063,54453 39401,53326 38739,52200 38077,51073 37415,49947 36753,48820 36091,47693 35429,46567 35370,46456 35312,46345 35253,46234 35194,46124 35104,45925 35014,45727 34924,45528 34834,45329 34725,45047 34615,44765 34506,44483 34396,44201 34278,43839 34161,43477 34043,43116 33925,42754 33810,42317 33696,41880 33581,41443 33467,41006 33367,40497 33267,39989 33168,39480 33068,38972 32994,38396 32921,37821 32847,37245 32774,36669 32743,36123 32713,35578 32682,35032 32652,34486 32669,34309 32719,34146 32798,33998 32903,33871 33031,33765 33178,33686 33341,33636 33517,33619 H 42708 L 42883,33601 43046,33551 43193,33471 43321,33365 43427,33237 43506,33090 43557,32928 43574,32753 V 14701.5 L 43592,14524 43642,14361 43722,14214 43828,14086 43956,13980 44103,13900 44266,13850 44440,13832 H 65845 L 67026,13836 68190,13845 69338,13861 70467,13883 71576,13911 72664,13945 73729,13984 74770,14029 75785,14079 76774,14134 77733,14194 78663,14259 79562,14329 80427,14403 81258,14481 82054,14564 82813,14651 83533,14742 84213,14836 84851,14934 85447,15036 85999,15140 86504,15248 86963,15359 87373,15472 87733,15589 88042,15707 88297,15828 88499,15951 88644,16077 88733,16204 88762,16332 V 46196 L 88750,46315 88716,46426 88662,46526 88590,46613 88502,46686 88402,46740 88291,46774 88172,46786 H 71581 L 71303,46814 71044,46895 70810,47022 70607,47190 70438,47394 70311,47628 70231,47886 70203,48164 V 51996.5 Z"
     style="fill:#c2c200;fill-opacity:0;stroke:#000000;stroke-width:78.74019623;stroke-linecap:round;stroke-linejoin:round;stroke-opacity:1"
     inkscape:connector-curvature="0"
     transform="translate(2256.5441,8615.8958)" />
  <path
     id="path2884"
     d="M 44684,31160 H 50196 V 36672 36672 H 44684 Z"
     style="fill:#c2c200;fill-opacity:0;stroke:#000000;stroke-width:78.74019623;stroke-linecap:round;stroke-linejoin:round;stroke-opacity:1"
     inkscape:connector-curvature="0"
     transform="translate(2256.5441,8615.8958)" />
  <path
     id="path2882"
     d="M 44684,38641 H 50196 V 44153 44153 H 44684 Z"
     style="fill:#c2c200;fill-opacity:0;stroke:#000000;stroke-width:78.74019623;stroke-linecap:round;stroke-linejoin:round;stroke-opacity:1"
     inkscape:connector-curvature="0"
     transform="translate(2256.5441,8615.8958)" />
  <path
     id="path2880"
     d="M 42347,45467 45103,50240 40329,52996 37573,48223 Z"
     style="fill:#c2c200;fill-opacity:0;stroke:#000000;stroke-width:78.74019623;stroke-linecap:round;stroke-linejoin:round;stroke-opacity:1"
     inkscape:connector-curvature="0"
     transform="translate(2256.5441,8615.8958)" />
  <path
     id="path2876"
     d="M 37165,34861 H 42658 V 40373 H 37165 Z"
     style="fill:#c2c200;fill-opacity:0;stroke:#000000;stroke-width:78.74019623;stroke-linecap:round;stroke-linejoin:round;stroke-opacity:1"
     inkscape:connector-curvature="0"
     transform="translate(2256.5441,8615.8958)" />
  <path
     id="path2872"
     d="M 44685,29193 V 23681 H 50196 V 29193 29193 Z"
     style="fill:#c2c200;fill-opacity:0;stroke:#000000;stroke-width:78.74019623;stroke-linecap:round;stroke-linejoin:round;stroke-opacity:1"
     inkscape:connector-curvature="0"
     transform="translate(2256.5441,8615.8958)" />
  <path
     id="path2870"
     d="M 52165,15216 H 57676 V 20727 H 52165 Z"
     style="fill:#c2c200;fill-opacity:0;stroke:#000000;stroke-width:78.74019623;stroke-linecap:round;stroke-linejoin:round;stroke-opacity:1"
     inkscape:connector-curvature="0"
     transform="translate(2256.5441,8615.8958)" />
  <path
     id="path2866"
     d="M 50196,16161 V 21672 21672 H 44684 V 16161 Z"
     style="fill:#c2c200;fill-opacity:0;stroke:#000000;stroke-width:78.74019623;stroke-linecap:round;stroke-linejoin:round;stroke-opacity:1"
     inkscape:connector-curvature="0"
     transform="translate(2256.5441,8615.8958)" />
  <path
     id="path2864"
     d="M 57676,22736 V 28247 28247 H 52165 V 22736 Z"
     style="fill:#c2c200;fill-opacity:0;stroke:#000000;stroke-width:78.74019623;stroke-linecap:round;stroke-linejoin:round;stroke-opacity:1"
     inkscape:connector-curvature="0"
     transform="translate(2256.5441,8615.8958)" />
  <path
     id="path2862"
     d="M 74684,17106 H 80196 V 22617 22617 H 74684 Z"
     style="fill:#c2c200;fill-opacity:0;stroke:#000000;stroke-width:78.74019623;stroke-linecap:round;stroke-linejoin:round;stroke-opacity:1"
     inkscape:connector-curvature="0"
     transform="translate(2256.5441,8615.8958)" />
  <path
     id="path2860"
     d="M 74684,45097 V 39585 H 80196 V 45097 Z"
     style="fill:#c2c200;fill-opacity:0;stroke:#000000;stroke-width:78.74019623;stroke-linecap:round;stroke-linejoin:round;stroke-opacity:1"
     inkscape:connector-curvature="0"
     transform="translate(2256.5441,8615.8958)" />
  <path
     id="path2856"
     d="M 80190,37617 H 74679 V 32106 H 80190 Z"
     style="fill:#c2c200;fill-opacity:0;stroke:#000000;stroke-width:78.74019623;stroke-linecap:round;stroke-linejoin:round;stroke-opacity:1"
     inkscape:connector-curvature="0"
     transform="translate(2256.5441,8615.8958)" />
  <path
     id="path2854"
     d="M 74684,24547 H 80196 V 30058 30058 H 74684 Z"
     style="fill:#c2c200;fill-opacity:0;stroke:#000000;stroke-width:78.74019623;stroke-linecap:round;stroke-linejoin:round;stroke-opacity:1"
     inkscape:connector-curvature="0"
     transform="translate(2256.5441,8615.8958)" />
  <path
     id="path2852"
     d="M 72676,43247 V 43247 H 67165 V 37735 H 72676 Z"
     style="fill:#c2c200;fill-opacity:0;stroke:#000000;stroke-width:78.74019623;stroke-linecap:round;stroke-linejoin:round;stroke-opacity:1"
     inkscape:connector-curvature="0"
     transform="translate(2256.5441,8615.8958)" />
  <path
     id="path2850"
     d="M 72677,30215 V 35727 H 67165 V 30215 Z"
     style="fill:#c2c200;fill-opacity:0;stroke:#000000;stroke-width:78.74019623;stroke-linecap:round;stroke-linejoin:round;stroke-opacity:1"
     inkscape:connector-curvature="0"
     transform="translate(2256.5441,8615.8958)" />
  <path
     id="path2846"
     d="M 67164,28208 V 22696 H 72676 V 28208 28208 Z"
     style="fill:#c2c200;fill-opacity:0;stroke:#000000;stroke-width:78.74019623;stroke-linecap:round;stroke-linejoin:round;stroke-opacity:1"
     inkscape:connector-curvature="0"
     transform="translate(2256.5441,8615.8958)" />
  <path
     id="path2844"
     d="M 72678,15216 V 20727 20727 H 67166 V 15216 Z"
     style="fill:#c2c200;fill-opacity:0;stroke:#000000;stroke-width:78.74019623;stroke-linecap:round;stroke-linejoin:round;stroke-opacity:1"
     inkscape:connector-curvature="0"
     transform="translate(2256.5441,8615.8958)" />
  <path
     id="path2842"
     d="M 65169,20180 H 59657 V 14669 H 65169 Z"
     style="fill:#c2c200;fill-opacity:0;stroke:#000000;stroke-width:78.74019623;stroke-linecap:round;stroke-linejoin:round;stroke-opacity:1"
     inkscape:connector-curvature="0"
     transform="translate(2256.5441,8615.8958)" />
  <path
     id="path2840"
     d="M 65196,27696 V 27696 H 59685 V 22185 H 65196 Z"
     style="fill:#c2c200;fill-opacity:0;stroke:#000000;stroke-width:78.74019623;stroke-linecap:round;stroke-linejoin:round;stroke-opacity:1"
     inkscape:connector-curvature="0"
     transform="translate(2256.5441,8615.8958)" />
  <path
     id="path2838"
     d="M 65196,29704 V 35215 H 59685 V 29704 Z"
     style="fill:#c2c200;fill-opacity:0;stroke:#000000;stroke-width:78.74019623;stroke-linecap:round;stroke-linejoin:round;stroke-opacity:1"
     inkscape:connector-curvature="0"
     transform="translate(2256.5441,8615.8958)" />
  <path
     id="path2834"
     d="M 65196,37184 V 42696 H 59684 V 37184 Z"
     style="fill:#c2c200;fill-opacity:0;stroke:#000000;stroke-width:78.74019623;stroke-linecap:round;stroke-linejoin:round;stroke-opacity:1"
     inkscape:connector-curvature="0"
     transform="translate(2256.5441,8615.8958)" />
  <path
     id="path2830"
     d="M 61417,45196 V 50708 H 55905 V 45196 Z"
     style="fill:#c2c200;fill-opacity:0;stroke:#000000;stroke-width:78.74019623;stroke-linecap:round;stroke-linejoin:round;stroke-opacity:1"
     inkscape:connector-curvature="0"
     transform="translate(2256.5441,8615.8958)" />
  <path
     id="path2826"
     d="M 53936,46082 H 48424 V 51594 H 53936 V 51594 Z"
     style="fill:#c2c200;fill-opacity:0;stroke:#000000;stroke-width:78.74019623;stroke-linecap:round;stroke-linejoin:round;stroke-opacity:1"
     inkscape:connector-curvature="0"
     transform="translate(2256.5441,8615.8958)" />
  <path
     id="path2824"
     d="M 52165,37735 H 57677 V 43247 43247 H 52165 Z"
     style="fill:#c2c200;fill-opacity:0;stroke:#000000;stroke-width:78.74019623;stroke-linecap:round;stroke-linejoin:round;stroke-opacity:1"
     inkscape:connector-curvature="0"
     transform="translate(2256.5441,8615.8958)" />
  <path
     id="path2822"
     d="M 57677,30216 H 52165 V 35728 H 57677 V 35728 Z"
     style="fill:#c2c200;fill-opacity:0;stroke:#000000;stroke-width:78.74019623;stroke-linecap:round;stroke-linejoin:round;stroke-opacity:1"
     inkscape:connector-curvature="0"
     transform="translate(2256.5441,8615.8958)" />
  <path
     id="path2820"
     d="M 63425,50708 V 48965 45196 H 68937 V 50708 Z"
     style="fill:#c2c200;fill-opacity:0;stroke:#000000;stroke-width:78.74019623;stroke-linecap:round;stroke-linejoin:round;stroke-opacity:1"
     inkscape:connector-curvature="0"
     transform="translate(2256.5441,8615.8958)" />
  <path
     id="path2818"
     d="M 82164,30648 V 25137 H 87676 V 30648 Z"
     style="fill:#c2c200;fill-opacity:0;stroke:#000000;stroke-width:78.74019623;stroke-linecap:round;stroke-linejoin:round;stroke-opacity:1"
     inkscape:connector-curvature="0"
     transform="translate(2256.5441,8615.8958)" />
  <path
     id="path1986"
     d="M 87676,23208 H 82164 V 17696 H 87676 Z"
     style="fill:#c2c200;fill-opacity:0;stroke:#000000;stroke-width:78.74019623;stroke-linecap:round;stroke-linejoin:round;stroke-opacity:1"
     inkscape:connector-curvature="0"
     transform="translate(2256.5441,8615.8958)" />
  <path
     transform="translate(2256.5441,8615.8958)"
     inkscape:connector-curvature="0"
     style="fill:#c2c200;fill-opacity:0;stroke:#000000;stroke-width:78.74019623;stroke-linecap:round;stroke-linejoin:round;stroke-opacity:1"
     d="M 70191,52111 70157,52222 70102,52322 70030,52410 69943,52482 69843,52536 69732,52570 69613,52582 H 46401.5 L 45741,52964 45082,53346 44422,53728 43762,54110 43103,54492 42443,54874 41783,55256 41123,55638 41052,55677 41002,55693 40953,55697 H 40909 L 40866,55684 40822,55663 40763,55626 40726,55580 40063,54453 39401,53326 38739,52200 38077,51073 37415,49947 36753,48820 36091,47693 35429,46567 35370,46456 35312,46345 35253,46234 35194,46124 35104,45925 35014,45727 34924,45528 34834,45329 34725,45047 34615,44765 34506,44483 34396,44201 34278,43839 34161,43477 34043,43116 33925,42754 33810,42317 33696,41880 33581,41443 33467,41006 33367,40497 33267,39989 33168,39480 33068,38972 32994,38396 32921,37821 32847,37245 32774,36669 32743,36123 32713,35578 32682,35032 32652,34486 V 31634.5 14244.5 L 32662,14164.5 32692,14084.5 32722,14014.5 32772,13954.5 32842,13904.5 32912,13864.5 32982,13844.5 33072,13834.5 65845,13832 67026,13836 68190,13845 69338,13861 70467,13883 71576,13911 72664,13945 73729,13984 74770,14029 75785,14079 76774,14134 77733,14194 78663,14259 79562,14329 80427,14403 81258,14481 82054,14564 82813,14651 83533,14742 84213,14836 84851,14934 85447,15036 85999,15140 86504,15248 86963,15359 87373,15472 87733,15589 88042,15707 88297,15828 88499,15951 88644,16077 88733,16204 88762,16332 V 46196 L 88750,46315 88716,46426 88662,46526 88590,46613 88502,46686 88402,46740 88291,46774 88172,46786 H 71581 L 71303,46814 71044,46895 70810,47022 70607,47190 70438,47394 70311,47628 70231,47886 70203,48164 V 51996.5 Z"
     id="path3261"
     sodipodi:nodetypes="cccccccccccccccccccccccccccccccccccccccccccccccccccccccccccccccccccccccccccccccccccccccccccccccccccccccccccccccccccccccccccccccc" />
</svg>
